<svg width="51" height="51" viewBox="0 0 51 51" fill="none" xmlns="http://www.w3.org/2000/svg">
    <path d="M5.03592 10.0718H0V45.3233C0 48.0931 2.26617 50.3592 5.03592 50.3592H40.2874V45.3233H5.03592V10.0718ZM45.3233 0H15.1078C12.338 0 10.0718 2.26617 10.0718 5.03592V35.2515C10.0718 38.0212 12.338 40.2874 15.1078 40.2874H45.3233C48.0931 40.2874 50.3592 38.0212 50.3592 35.2515V5.03592C50.3592 2.26617 48.0931 0 45.3233 0Z" fill="#43709A"/>
    <path d="M28.5368 12.8186H31.7415V25.6373H28.5368V12.8186ZM23.1957 12.8186H16.7864C15.5045 12.8186 14.6499 13.8868 14.6499 14.9551V23.5009C14.6499 24.5691 15.5045 25.6373 16.7864 25.6373H23.1957C24.4776 25.6373 25.3322 24.5691 25.3322 23.5009V19.228H22.1275V22.4326H17.8546V16.0233H25.3322V14.9551C25.3322 13.8868 24.4776 12.8186 23.1957 12.8186ZM44.5602 16.0233V12.8186H34.9462V25.6373H38.1509V21.3644H42.4238V18.1597H38.1509V16.0233H44.5602Z" fill="#C8D5DD"/>
</svg>
