<svg width="38" height="34" viewBox="0 0 38 34" fill="none" xmlns="http://www.w3.org/2000/svg">
    <path opacity="0.9" d="M0 34H6.85012V13.6H0V34ZM37.6757 15.3C37.6757 13.43 36.1344 11.9 34.2506 11.9H23.4445L25.0714 4.131L25.1228 3.587C25.1228 2.89 24.8317 2.244 24.3693 1.785L22.554 0L11.2856 11.203C10.6519 11.815 10.2752 12.665 10.2752 13.6V30.6C10.2752 32.47 11.8165 34 13.7002 34H29.113C30.5344 34 31.7503 33.15 32.2641 31.926L37.4359 19.941C37.59 19.55 37.6757 19.142 37.6757 18.7V15.3Z" fill="#DC7D0C"/>
</svg>
