<svg width="48" height="54" viewBox="0 0 48 54" fill="none" xmlns="http://www.w3.org/2000/svg">
    <path d="M41.6185 0.549805H6.76759C3.57292 0.549805 0.959106 2.93958 0.959106 5.86041V48.3453C0.959106 51.2661 3.57292 53.6559 6.76759 53.6559H41.6185C44.8131 53.6559 47.4269 51.2661 47.4269 48.3453V5.86041C47.4269 2.93958 44.8131 0.549805 41.6185 0.549805Z" fill="#DC7D0C"/>
    <path d="M6.97107 21.4376V25.3517H10.8851L22.429 13.8078L18.515 9.8937L6.97107 21.4376ZM25.4559 10.7809C25.863 10.3738 25.863 9.71626 25.4559 9.3092L23.0135 6.86682C22.6065 6.45976 21.9489 6.45976 21.5418 6.86682L19.6318 8.77689L23.5458 12.691L25.4559 10.7809Z" fill="#C8D5DD"/>
    <rect x="19.9971" y="22.5938" width="22.044" height="3.00601" rx="1" fill="#C8D5DD"/>
    <rect x="5.96912" y="30.6096" width="36.0721" height="3.00601" rx="1" fill="#C8D5DD"/>
    <rect x="5.96912" y="38.6257" width="36.0721" height="3.00601" rx="1" fill="#C8D5DD"/>
</svg>
