<svg width="53" height="36" viewBox="0 0 53 36" fill="none" xmlns="http://www.w3.org/2000/svg">
    <g opacity="0.9">
        <path d="M50.6338 18.3092C36.9444 1.38548 16.1526 1.38979 2.46687 18.3221C2.18915 18.6657 2.18052 19.1659 2.4412 19.5226C17.4387 40.0441 37.6159 36.5458 50.6504 19.5213C50.9237 19.1642 50.9166 18.6587 50.6338 18.3092Z" stroke="#2F6291" stroke-width="4"/>
        <path d="M37.1783 12.2363C38.3153 15.3598 38.2924 18.8302 37.1142 21.9363C35.9359 25.0423 33.6916 27.5489 30.8411 28.9424C27.9906 30.3359 24.7497 30.5107 21.7826 29.4311C18.8154 28.3516 16.3466 26.0993 14.8821 23.1358C13.4176 20.1723 13.0682 16.722 13.9055 13.4919C14.7428 10.2618 16.7035 7.49646 19.3857 5.76252C22.068 4.02858 25.2687 3.45732 28.3321 4.1658C31.3955 4.87429 34.0895 6.80887 35.8622 9.57314L32.2668 12.2104C31.1236 10.4277 29.3862 9.18006 27.4106 8.72316C25.435 8.26625 23.3708 8.63466 21.641 9.75289C19.9112 10.8711 18.6468 12.6545 18.1068 14.7376C17.5668 16.8207 17.7921 19.0458 18.7366 20.957C19.6811 22.8682 21.2732 24.3207 23.1868 25.0169C25.1003 25.7131 27.1904 25.6004 29.0287 24.7017C30.867 23.8031 32.3143 22.1866 33.0742 20.1834C33.834 18.1803 33.8488 15.9422 33.1155 13.9278L37.1783 12.2363Z" fill="#2F6291"/>
    </g>
</svg>
