<svg width="41" height="42" viewBox="0 0 41 42" fill="none" xmlns="http://www.w3.org/2000/svg">
<g filter="url(#filter0_d)">
<path d="M27.5849 23.9627H26.0943L25.566 23.4563C27.4151 21.3179 28.5283 18.5417 28.5283 15.5217C28.5283 8.78763 23.0377 3.3291 16.2642 3.3291C9.49057 3.3291 4 8.78763 4 15.5217C4 22.2558 9.49057 27.7143 16.2642 27.7143C19.3019 27.7143 22.0943 26.6076 24.2453 24.7693L24.7547 25.2945V26.7764L34.1887 36.1366L37 33.3417L27.5849 23.9627ZM16.2642 23.9627C11.566 23.9627 7.77358 20.1924 7.77358 15.5217C7.77358 10.851 11.566 7.08067 16.2642 7.08067C20.9623 7.08067 24.7547 10.851 24.7547 15.5217C24.7547 20.1924 20.9623 23.9627 16.2642 23.9627Z" fill="#F3FAFB"/>
</g>
<defs>
<filter id="filter0_d" x="0" y="0.329102" width="41" height="40.8075" filterUnits="userSpaceOnUse" color-interpolation-filters="sRGB">
<feFlood flood-opacity="0" result="BackgroundImageFix"/>
<feColorMatrix in="SourceAlpha" type="matrix" values="0 0 0 0 0 0 0 0 0 0 0 0 0 0 0 0 0 0 127 0"/>
<feOffset dy="1"/>
<feGaussianBlur stdDeviation="2"/>
<feColorMatrix type="matrix" values="0 0 0 0 0 0 0 0 0 0 0 0 0 0 0 0 0 0 0.25 0"/>
<feBlend mode="normal" in2="BackgroundImageFix" result="effect1_dropShadow"/>
<feBlend mode="normal" in="SourceGraphic" in2="effect1_dropShadow" result="shape"/>
</filter>
</defs>
</svg>
