<svg width="48" height="53" viewBox="0 0 48 53" fill="none" xmlns="http://www.w3.org/2000/svg">
<path d="M42.4 5.3H31.323C30.21 2.226 27.295 0 23.85 0C20.405 0 17.49 2.226 16.377 5.3H5.3C2.385 5.3 0 7.685 0 10.6V47.7C0 50.615 2.385 53 5.3 53H42.4C45.315 53 47.7 50.615 47.7 47.7V10.6C47.7 7.685 45.315 5.3 42.4 5.3ZM23.85 5.3C25.3075 5.3 26.5 6.4925 26.5 7.95C26.5 9.4075 25.3075 10.6 23.85 10.6C22.3925 10.6 21.2 9.4075 21.2 7.95C21.2 6.4925 22.3925 5.3 23.85 5.3ZM23.85 15.9C28.249 15.9 31.8 19.451 31.8 23.85C31.8 28.249 28.249 31.8 23.85 31.8C19.451 31.8 15.9 28.249 15.9 23.85C15.9 19.451 19.451 15.9 23.85 15.9ZM39.75 47.7H7.95V43.99C7.95 38.69 18.55 35.775 23.85 35.775C29.15 35.775 39.75 38.69 39.75 43.99V47.7Z" fill="#C8D5DD"/>
</svg>
